<svg xmlns="http://www.w3.org/2000/svg" viewBox="0 0 210 48" role="img" aria-label="Temvorel"><path d="M6 12H42" stroke="#ffffff" stroke-width="3"/><rect x="12" y="7" width="10" height="10" fill="#ffffff"/><path d="M6 24H42" stroke="#ffffff" stroke-width="3"/><rect x="26" y="19" width="10" height="10" fill="#ffffff"/><path d="M6 36H42" stroke="#ffffff" stroke-width="3"/><rect x="17" y="31" width="10" height="10" fill="#ffffff"/><g fill="#ffffff" transform="translate(58 36) scale(0.0165 -0.0165)"><path transform="translate(0 0)" d="M486.3348388671875 0V1214.3367919921875H20V1440H1193.33251953125V1214.3367919921875H726.9976806640625V0Z"/><path transform="translate(1200 0)" d="M630.665283203125 -30Q466.83221435546875 -30 342.99920654296875 41.083282470703125Q219.16619873046875 112.16656494140625 149.58309936523438 238.08328247070312Q80 364 80 528.3336181640625Q80 705.3336181640625 148.24978637695312 835.8335571289062Q216.49957275390625 966.33349609375 337.4159851074219 1038.166748046875Q458.3323974609375 1110 617.332275390625 1110Q784.8319702148438 1110 902.331787109375 1031.6668701171875Q1019.8316040039062 953.333740234375 1077.0816345214844 810.333984375Q1134.3316650390625 667.334228515625 1120.1653442382812 472.667724609375H881.0023193359375V560.666259765625Q880.002197265625 737.0009765625 819.0011596679688 818.168701171875Q758.0001220703125 899.33642578125 627.33203125 899.33642578125Q479.49761962890625 899.33642578125 407.2467956542969 807.6688842773438Q334.9959716796875 716.0013427734375 334.9959716796875 540Q334.9959716796875 375.6650390625 407.2467956542969 285.66412353515625Q479.49761962890625 195.6632080078125 617.332275390625 195.6632080078125Q706.3333740234375 195.6632080078125 770.6676025390625 235.3304443359375Q835.0018310546875 274.9976806640625 870.00244140625 349.6654052734375L1108.3316650390625 277.99951171875Q1046.4982299804688 131.6663818359375 916.7484436035156 50.83319091796875Q786.9986572265625 -30 630.665283203125 -30ZM258.9969482421875 472.667724609375V654.9986572265625H1002.3336181640625V472.667724609375Z"/><path transform="translate(2391 0)" d="M1436.9996337890625 0 1437.3330078125 655.6688232421875Q1437.3330078125 767.3360595703125 1382.0824279785156 829.83642578125Q1326.8318481445312 892.3367919921875 1233.331298828125 892.3367919921875Q1175.1644897460938 892.3367919921875 1129.2473449707031 865.4200744628906Q1083.3302001953125 838.5033569335938 1056.3297729492188 787.4195861816406Q1029.329345703125 736.3358154296875 1029.329345703125 664.66796875L921.996826171875 727.999755859375Q921.1633911132812 840.333251953125 972.6632690429688 925.8333129882812Q1024.1631469726562 1011.3333740234375 1111.9130554199219 1059.0000610351562Q1199.6629638671875 1106.666748046875 1307.6629638671875 1106.666748046875Q1487.3289794921875 1106.666748046875 1582.6624145507812 999.4170227050781Q1677.995849609375 892.1672973632812 1677.995849609375 716.66748046875L1677.6624755859375 0ZM138.3333740234375 0V1080H351.330078125V745.0028076171875H380.662841796875V0ZM788.66650390625 0 788.9998779296875 653.335205078125Q788.9998779296875 765.8358764648438 733.9993286132812 829.0863342285156Q678.998779296875 892.3367919921875 584.3314208984375 892.3367919921875Q492.49725341796875 892.3367919921875 436.5800476074219 829.2528991699219Q380.662841796875 766.1690063476562 380.662841796875 664.66796875L273.330322265625 736.6669921875Q273.330322265625 842.3336181640625 325.3302001953125 925.9169006347656Q377.330078125 1009.5001831054688 465.66326904296875 1058.0834655761719Q553.9964599609375 1106.666748046875 664.3297119140625 1106.666748046875Q785.3289794921875 1106.666748046875 866.5789489746094 1055.2503967285156Q947.8289184570312 1003.8340454101562 988.5791320800781 915.334228515625Q1029.329345703125 826.8344116210938 1029.329345703125 715.6673583984375L1028.9959716796875 0Z"/><path transform="translate(4176 0)" d="M432 0 40 1080H281.32958984375L552.9981689453125 296.9957275390625L824.3333740234375 1080H1065.996337890625L673.996337890625 0Z"/><path transform="translate(5269 0)" d="M617.332275390625 -30Q454.83233642578125 -30 333.999267578125 43.0Q213.16619873046875 116 146.58309936523438 244.58334350585938Q80 373.16668701171875 80 540.3333740234375Q80 709.5000610351562 147.999755859375 837.9167175292969Q215.99951171875 966.3333740234375 336.9159240722656 1038.1666870117188Q457.83233642578125 1110 617.332275390625 1110Q779.9989013671875 1110 901.2486267089844 1037.0833435058594Q1022.4983520507812 964.1666870117188 1089.4147644042969 835.7500305175781Q1156.3311767578125 707.3333740234375 1156.3311767578125 540.3333740234375Q1156.3311767578125 371.83331298828125 1088.9147644042969 243.33331298828125Q1021.4983520507812 114.83331298828125 900.165283203125 42.416656494140625Q778.8322143554688 -30 617.332275390625 -30ZM617.332275390625 195.6632080078125Q760.5004272460938 195.6632080078125 830.9178161621094 291.99749755859375Q901.335205078125 388.331787109375 901.335205078125 540.3333740234375Q901.335205078125 697.1682739257812 830.0011596679688 790.7525329589844Q758.6671142578125 884.3367919921875 617.332275390625 884.3367919921875Q520.331298828125 884.3367919921875 457.9139709472656 840.669677734375Q395.49664306640625 797.0025634765625 365.2463073730469 719.66845703125Q334.9959716796875 642.3343505859375 334.9959716796875 540.3333740234375Q334.9959716796875 382.83184814453125 406.66339111328125 289.2475280761719Q478.330810546875 195.6632080078125 617.332275390625 195.6632080078125Z"/><path transform="translate(6492 0)" d="M140 0V1080H352.9967041015625V817.0001220703125L326.9967041015625 851.0001220703125Q347.3299560546875 904.9998779296875 380.82977294921875 949.6663818359375Q414.32958984375 994.3328857421875 460.9957275390625 1023.332763671875Q500.82916259765625 1050.4998168945312 549.2461242675781 1065.5Q597.6630859375 1080.5001831054688 648.663330078125 1084.0001831054688Q699.66357421875 1087.5001831054688 748.3302001953125 1080V855.0035400390625Q699.6630859375 869.1702270507812 637.5794372558594 863.8367919921875Q575.4957885742188 858.5033569335938 524.662109375 829.3359375Q475.16192626953125 802.1686401367188 443.7454528808594 760.2513122558594Q412.3289794921875 718.333984375 397.3292236328125 664.83349609375Q382.3294677734375 611.3330078125 382.3294677734375 548.666259765625V0Z"/><path transform="translate(7277 0)" d="M630.665283203125 -30Q466.83221435546875 -30 342.99920654296875 41.083282470703125Q219.16619873046875 112.16656494140625 149.58309936523438 238.08328247070312Q80 364 80 528.3336181640625Q80 705.3336181640625 148.24978637695312 835.8335571289062Q216.49957275390625 966.33349609375 337.4159851074219 1038.166748046875Q458.3323974609375 1110 617.332275390625 1110Q784.8319702148438 1110 902.331787109375 1031.6668701171875Q1019.8316040039062 953.333740234375 1077.0816345214844 810.333984375Q1134.3316650390625 667.334228515625 1120.1653442382812 472.667724609375H881.0023193359375V560.666259765625Q880.002197265625 737.0009765625 819.0011596679688 818.168701171875Q758.0001220703125 899.33642578125 627.33203125 899.33642578125Q479.49761962890625 899.33642578125 407.2467956542969 807.6688842773438Q334.9959716796875 716.0013427734375 334.9959716796875 540Q334.9959716796875 375.6650390625 407.2467956542969 285.66412353515625Q479.49761962890625 195.6632080078125 617.332275390625 195.6632080078125Q706.3333740234375 195.6632080078125 770.6676025390625 235.3304443359375Q835.0018310546875 274.9976806640625 870.00244140625 349.6654052734375L1108.3316650390625 277.99951171875Q1046.4982299804688 131.6663818359375 916.7484436035156 50.83319091796875Q786.9986572265625 -30 630.665283203125 -30ZM258.9969482421875 472.667724609375V654.9986572265625H1002.3336181640625V472.667724609375Z"/><path transform="translate(8468 0)" d="M160 0V1470H400.662841796875V0Z"/></g></svg>